PathFileType	4	(X/Y/Z)	C:\Git\research_data\Projects\squatting_fais\c3dfiles\036\SJ_pre2\markers_experimental.trc
DataRate	CameraRate	NumFrames	NumMarkers	Units	OrigDataRate	OrigDataStartFrame	OrigNumFrames
200.000000	200.000000	4	62	mm	200.000000	1467	1677
Frame#	Time	FHD			LBHD			RBHD			C7			T10			CLAV			LSHO			LUUPA			LMUPA			LDUPA			LLEP			LMEP			LRAD			LUL			LRFIN			RSHO			RUPA1			RMUPA			RDUPA			RLEP			RMEP			RRAD			RUL			RUFIN			LASI			RASI			USACR			LSACR			RSACR			LTHI1			LTHI2			LTHI3			LTHI4			LLFC			LMFC			LTIB1			LTIB2			LTIB3			LTIB4			LLMAL			LMMAL			LHEE			LMT1			LMT2			LMT5			RTHI			RTHI2			RTHI3			RTHI4			RLFC			RMFC			RTIB1			RTIB2			RTIB3			RTIB4			RLMAL			RMMAL			RHEE			RMT1			RMT2			RMT5			*61			
		X1	Y1	Z1	X2	Y2	Z2	X3	Y3	Z3	X4	Y4	Z4	X5	Y5	Z5	X6	Y6	Z6	X7	Y7	Z7	X8	Y8	Z8	X9	Y9	Z9	X10	Y10	Z10	X11	Y11	Z11	X12	Y12	Z12	X13	Y13	Z13	X14	Y14	Z14	X15	Y15	Z15	X16	Y16	Z16	X17	Y17	Z17	X18	Y18	Z18	X19	Y19	Z19	X20	Y20	Z20	X21	Y21	Z21	X22	Y22	Z22	X23	Y23	Z23	X24	Y24	Z24	X25	Y25	Z25	X26	Y26	Z26	X27	Y27	Z27	X28	Y28	Z28	X29	Y29	Z29	X30	Y30	Z30	X31	Y31	Z31	X32	Y32	Z32	X33	Y33	Z33	X34	Y34	Z34	X35	Y35	Z35	X36	Y36	Z36	X37	Y37	Z37	X38	Y38	Z38	X39	Y39	Z39	X40	Y40	Z40	X41	Y41	Z41	X42	Y42	Z42	X43	Y43	Z43	X44	Y44	Z44	X45	Y45	Z45	X46	Y46	Z46	X47	Y47	Z47	X48	Y48	Z48	X49	Y49	Z49	X50	Y50	Z50	X51	Y51	Z51	X52	Y52	Z52	X53	Y53	Z53	X54	Y54	Z54	X55	Y55	Z55	X56	Y56	Z56	X57	Y57	Z57	X58	Y58	Z58	X59	Y59	Z59	X60	Y60	Z60	X61	Y61	Z61	X62	Y62	Z62	

1468	7.335	-175.1103973388672	1550.488525390625	-961.434753417969	-326.7031555175782	1466.694946289063	-1026.813354492188	-287.7999877929688	1500.82861328125	-883.9157714843752	-361.0358276367188	1367.7470703125	-971.0037841796877	-369.7593688964844	1062.024536132813	-958.0133056640627	-212.2030944824219	1314.008666992188	-952.255065917969	-256.8395690917969	1350.328247070313	-1099.880859375	-299.9126281738282	1220.20751953125	-1229.840209960938	-265.6280212402344	1184.35888671875	-1227.744506835938	-308.3462219238282	1159.816528320313	-1263.618774414063	-309.1213073730469	1103.897338867188	-1277.44091796875	-368.1009521484376	1093.417236328125	-1245.48828125	-196.8218994140626	903.0739746093752	-1219.705322265625	-234.303939819336	920.4685668945315	-1162.628540039063	-204.2547454833985	866.1777343750002	-1131.2578125	-272.5308532714844	1354.202880859375	-806.5648193359377	-314.9831237792969	1241.22900390625	-686.4379882812501	-274.0373229980469	1213.466552734375	-683.1313476562501	-309.7949829101563	1183.928100585938	-646.4188232421876	-299.7635803222657	1115.769897460938	-621.4029541015626	-358.6745605468751	1085.181030273438	-660.2838745117189	-224.4450683593751	933.4775390625002	-738.5036621093751	-179.206039428711	922.9011840820315	-690.1920166015626	-198.7088928222657	888.7000732421877	-778.8389282226565	-186.322494506836	872.4677734375002	-1079.1650390625	-197.3882141113282	882.5972900390627	-809.7702636718752	-375.0479125976563	979.921081542969	-959.7508544921877	-394.914031982422	953.3171386718752	-985.1877441406252	-397.1371154785157	958.1260986328127	-930.5618896484377	-283.4022216796876	750.9458618164064	-1158.751953125	-262.5331420898438	669.0789184570314	-1163.062255859375	-219.0422668457032	666.9057006835939	-1145.525756835938	-298.0130920410157	621.4039916992189	-1163.688598632813	-351.2081298828126	470.7612304687501	-1153.135009765625	-343.4350280761719	420.9606018066407	-1007.066650390625	-281.7775268554688	286.5341491699219	-1095.376342773438	-301.8031005859376	251.811508178711	-1173.33740234375	-279.6018981933594	244.688949584961	-1134.208984375	-280.9855346679688	161.6949920654297	-1113.2705078125	-327.6682739257813	82.40696716308595	-1174.654418945313	-308.2584838867188	83.35021209716798	-1092.543090820313	-378.6513061523438	54.934871673584	-1141.228393554688	-189.1153259277344	54.84381484985353	-1107.043334960938	-176.1442108154297	54.71714401245119	-1154.086547851563	-214.2895812988282	33.42814636230469	-1204.6943359375	-343.7388610839844	713.1156005859376	-744.6516723632814	-309.0793457031251	657.3321533203126	-732.0169067382814	-276.8611450195313	659.1719360351564	-728.6497802734376	-336.9981079101563	579.3530273437501	-738.0361938476564	-333.7952270507813	464.4238891601564	-739.3106079101564	-304.3042602539063	440.1718139648439	-882.2529907226565	-288.9893188476563	308.1969909667969	-762.2182617187501	-358.0701293945313	235.8377990722657	-710.0933837890626	-313.9219665527344	232.6514892578126	-727.2246704101564	-302.5497741699219	180.329086303711	-753.1569824218751	-373.7132263183594	82.36953735351564	-729.3375244140626	-334.4497375488282	85.42964935302736	-803.0479125976565	-413.2115173339845	53.50745391845705	-769.3112792968752	-215.0091857910157	54.0825653076172	-765.4398803710939	-220.1039428710938	57.53366470336915	-715.4700317382814	-262.6362609863282	33.4117660522461	-673.5582885742189	nan	nan	nan	
1469	7.34	-175.0525512695313	1550.509887695313	-961.5027465820315	-326.6215209960938	1466.677734375	-1026.860717773438	-287.7035522460938	1500.858642578125	-883.9531250000002	-361.0598144531251	1367.761474609375	-970.9847412109377	-369.7346496582032	1062.021240234375	-958.0200195312502	-212.1594543457032	1314.009155273438	-952.266784667969	-256.7447509765626	1350.353759765625	-1099.88671875	-299.7851562500001	1220.242065429688	-1229.8369140625	-265.6455078125001	1184.392333984375	-1227.727661132813	-308.2569885253907	1159.865356445313	-1263.601196289063	-309.0618591308594	1103.981079101563	-1277.454711914063	-368.1962280273438	1093.489135742188	-1245.544311523438	-196.7412414550782	903.0502929687502	-1219.732421875	-234.3067626953126	920.465759277344	-1162.6328125	-204.2531433105469	866.1787109375002	-1131.275268554688	-272.5327453613282	1354.2314453125	-806.5842285156252	-314.9824523925782	1241.216918945313	-686.4336547851564	-274.0328674316407	1213.470581054688	-683.1705932617189	-309.8293151855469	1183.911010742188	-646.4773559570314	-299.7624816894532	1115.787475585938	-621.4257812500001	-358.7117004394532	1085.174926757813	-660.3081665039064	-224.3903045654297	933.4697265625002	-738.5388183593751	-179.2641906738282	922.8428955078127	-690.1820678710939	-198.7306365966797	888.7034301757815	-778.8214111328127	-186.3123931884766	872.4438476562502	-1079.166137695313	-197.3782653808594	882.589538574219	-809.7640380859377	-375.0257568359376	979.8892211914065	-959.7861328125002	-394.9812011718751	953.3552246093752	-985.1922607421877	-396.9944458007814	958.0703735351565	-930.553894042969	-283.2178039550782	750.8451538085939	-1158.842651367188	-262.4931335449219	669.0737304687501	-1163.090209960938	-219.0753326416016	666.9149780273439	-1145.52734375	-297.9852905273438	621.3460083007814	-1163.718994140625	-351.6710510253907	470.7527770996095	-1153.014892578125	-343.4953002929688	420.9790039062501	-1007.075744628906	-281.8013916015626	286.6005859375001	-1095.410522460938	-301.9586181640626	251.7611541748047	-1173.401245117188	-279.6256713867188	244.6634063720704	-1134.236450195313	-280.9928894042969	161.689208984375	-1113.30224609375	-327.7410278320313	82.43263244628908	-1174.640258789063	-308.2633666992188	83.35059356689455	-1092.535888671875	-378.6520385742188	54.94261169433595	-1141.215698242188	-189.103012084961	54.85831832885744	-1107.084594726563	-176.2317504882813	54.70357131958009	-1154.057861328125	-214.2246398925782	33.36415100097657	-1204.667236328125	-343.7448120117188	713.1047363281251	-744.6763916015626	-309.0780334472657	657.3530883789064	-732.0360717773439	-276.8155517578126	659.1629028320314	-728.6940917968751	-336.9875488281251	579.3530883789064	-738.0379028320314	-333.8198242187501	464.4277954101564	-739.3343505859376	-304.2886047363282	440.1036071777345	-882.2508544921877	-289.0041198730469	308.1699523925782	-762.2230224609376	-358.1353759765626	235.8949432373047	-710.0845336914064	-313.9068603515626	232.5841674804688	-727.2295532226564	-302.5748901367188	180.290267944336	-753.1461181640626	-373.7331848144532	82.38560485839845	-729.2797851562501	-334.4664306640626	85.41910552978517	-803.0347900390627	-413.1995544433595	53.53570938110353	-769.329040527344	-215.0606689453126	54.05875396728517	-765.4807739257814	-220.0745391845704	57.52856445312501	-715.5029907226564	-262.6206665039063	33.42093658447266	-673.5829467773439	nan	nan	nan	
1470	7.345	-174.982666015625	1550.541259765625	-961.5137939453127	-326.6517639160157	1466.642822265625	-1026.882690429688	-287.6859741210938	1500.899536132813	-883.9788818359377	-360.9746704101563	1367.781372070313	-970.9920043945315	-369.6716918945313	1062.011352539063	-958.071228027344	-212.0300292968751	1314.073974609375	-952.248962402344	-256.6706848144532	1350.360717773438	-1099.879638671875	-299.7378540039063	1220.226806640625	-1229.833984375	-265.4937744140626	1184.444702148438	-1227.71533203125	-308.2837219238282	1159.940673828125	-1263.597534179688	-308.9708862304688	1103.946533203125	-1277.475219726563	-368.1502990722657	1093.557006835938	-1245.521484375	-196.7567443847657	903.0378417968752	-1219.682739257813	-234.3076171875001	920.4663696289065	-1162.63232421875	-204.2765197753907	866.148376464844	-1131.252075195313	-272.4643249511719	1354.229370117188	-806.5502929687502	-314.9950561523438	1241.21240234375	-686.4885864257814	-274.0310974121094	1213.460327148438	-683.1657714843751	-309.8158264160157	1183.907104492188	-646.4826660156251	-299.8050842285157	1115.786499023438	-621.4413452148439	-358.7474060058594	1085.17236328125	-660.3585205078126	-224.4131469726563	933.4521484375002	-738.5450439453126	-179.270736694336	922.8372802734377	-690.2147216796876	-198.7838745117188	888.668640136719	-778.8395996093752	-186.358139038086	872.4252929687502	-1079.178588867188	-197.3567047119141	882.5933227539065	-809.8067016601565	-375.0245056152344	979.9077148437502	-959.7849731445315	-394.923065185547	953.3369750976565	-985.2136230468752	-397.1533508300782	958.1277465820315	-930.5561523437502	-283.2184143066407	750.8104248046876	-1158.831420898438	-262.5375671386719	669.0766601562501	-1163.101196289063	-219.0799407958985	666.9223022460939	-1145.536010742188	-298.0083007812501	621.3575439453126	-1163.721435546875	-351.2060241699219	470.7728271484376	-1153.146606445313	-343.4840087890626	420.9594726562501	-1007.074157714844	-281.8247070312501	286.5974731445313	-1095.380004882813	-301.9230041503907	251.7873535156251	-1173.385375976563	-279.6201171875001	244.6500244140626	-1134.228759765625	-280.9825439453126	161.7120971679688	-1113.259765625	-327.6727600097657	82.36468505859376	-1174.633056640625	-308.2436828613282	83.36351776123048	-1092.519287109375	-378.6282043457032	54.9497413635254	-1141.251953125	-189.0970916748047	54.85493469238283	-1107.067993164063	-176.1688079833985	54.69759368896486	-1154.109741210938	-214.2515716552735	33.38747787475587	-1204.690551757813	-343.7420043945313	713.1091308593751	-744.6727294921876	-309.0848388671876	657.3459472656251	-732.0346679687501	-276.8613891601563	659.1256713867189	-728.6986694335939	-337.0059204101563	579.3422241210939	-738.0349731445314	-333.8186645507813	464.4056091308595	-739.3363037109376	-304.2918701171876	440.2044677734376	-882.3035278320315	-288.9617004394532	308.1898498535157	-762.2440185546876	-358.0765075683594	235.8444061279297	-710.1071166992189	-313.9247741699219	232.6177978515626	-727.2180175781251	-302.3291625976563	180.127914428711	-753.3092041015626	-373.7456359863282	82.39344024658205	-729.2964477539064	-334.4087219238282	85.41033935546876	-803.0488891601565	-413.2237854003907	53.51406478881837	-769.3298950195315	-215.0482940673829	54.07835388183595	-765.4686889648439	-220.0037078857422	57.470760345459	-715.5053100585939	-262.6134033203126	33.41067123413087	-673.5632324218751	nan	nan	nan	
1471	7.350000000000001	-174.9609069824219	1550.582153320313	-961.6075439453127	-326.6919860839844	1466.609375	-1026.906372070313	-287.6234130859376	1500.908447265625	-884.028015136719	-360.9454040527344	1367.784912109375	-971.0374755859377	-369.7520141601563	1062.032104492188	-958.0988769531252	-212.0401916503907	1314.075805664063	-952.2563476562502	-256.6473083496094	1350.397705078125	-1099.883422851563	-299.6214904785157	1220.25439453125	-1229.841064453125	-265.1394042968751	1184.681274414063	-1228.232299804688	-308.0452880859376	1159.877075195313	-1263.599853515625	-308.9402160644532	1104.006713867188	-1277.447387695313	-368.0022277832032	1093.51123046875	-1245.53271484375	-196.7371063232422	903.0170898437502	-1219.67431640625	-234.2713623046876	920.4914550781252	-1162.622436523438	-204.3249664306641	866.1189575195315	-1131.26220703125	-272.4642333984376	1354.223266601563	-806.5523681640627	-314.9866027832032	1241.193481445313	-686.5055541992189	-274.0241394042969	1213.444458007813	-683.1750488281251	-309.8105468750001	1183.8857421875	-646.5299682617189	-299.8103332519532	1115.769897460938	-621.4475708007814	-358.7803649902344	1085.15966796875	-660.3434448242189	-224.3694763183594	933.4505004882815	-738.5497436523439	-179.2615814208985	922.8339843750002	-690.2144775390626	-198.7965850830079	888.6668090820315	-778.8682250976565	-186.3543701171875	872.4268188476565	-1079.182373046875	-197.3661041259766	882.6140136718752	-809.8350830078127	-375.0533752441407	979.920837402344	-959.8015747070315	-394.9000549316407	953.2794189453127	-985.268737792969	-397.1990966796876	958.131286621094	-930.638610839844	-283.3100585937501	750.9012451171876	-1158.884887695313	-262.5892944335938	669.0633544921876	-1163.119140625	-219.0931091308594	666.9279785156251	-1145.5732421875	-298.0663452148438	621.3512573242189	-1163.714477539063	-351.2906494140626	470.765106201172	-1153.1455078125	-343.4989318847657	420.9997558593751	-1007.079162597656	-281.8075561523438	286.4347229003907	-1095.371704101563	-301.9153747558594	251.7889709472657	-1173.281372070313	-279.5566101074219	244.7295684814454	-1134.217041015625	-281.0159912109376	161.6752624511719	-1113.310668945313	-327.7588195800782	82.41841888427736	-1174.677734375	-308.2712097167969	83.36290740966798	-1092.5107421875	-378.6466369628907	54.95648574829103	-1141.2529296875	-189.1188659667969	54.84856414794923	-1107.067993164063	-176.1781005859375	54.71132659912111	-1154.105590820313	-214.2410888671876	33.39111328125001	-1204.667724609375	-343.7398681640626	713.1149902343751	-744.6766357421876	-309.1293029785157	657.3491821289064	-732.0151977539064	-276.8231811523438	659.1389160156251	-728.7324218750001	-337.0175476074219	579.3518066406251	-738.0427856445314	-333.7934875488282	464.4369201660157	-739.3160400390626	-304.4145812988282	440.2236328125001	-882.2713012695315	-289.0050659179688	308.1581420898438	-762.2315673828126	-358.0590820312501	235.8505859375001	-710.1336669921876	-313.9389648437501	232.6571197509766	-727.2521362304689	-302.5971984863282	180.317138671875	-753.1677856445314	-373.7740478515626	82.38366699218751	-729.3310546875001	-334.4389953613282	85.40454864501955	-803.0622558593752	-413.2229003906251	53.51757049560548	-769.3250732421877	-215.1134338378907	54.07068252563478	-765.4609375000001	-220.1388854980469	57.53702926635744	-715.5322875976564	-262.6366271972657	33.4229850769043	-673.5723876953126	nan	nan	nan	
